<svg xmlns="http://www.w3.org/2000/svg" width="20.367" height="22.669" viewBox="0 0 20.367 22.669">
  <path id="Path_97" data-name="Path 97" d="M26.443,22.669H45.924a.443.443,0,0,0,.443-.443A6.526,6.526,0,0,0,42.144,16.1l-2.1-.7-.755-1.511A4.849,4.849,0,0,0,40.6,11.324l.094-.565H41.5a1.33,1.33,0,0,0,1.328-1.328V6.641a6.641,6.641,0,0,0-13.283,0V9.431a1.33,1.33,0,0,0,.886,1.252V11.2a1.33,1.33,0,0,0,1.328,1.328h.389a4.8,4.8,0,0,0,.743,1.15c.063.072.128.142.2.21l-.755,1.51-2.1.7A6.526,6.526,0,0,0,26,22.226.443.443,0,0,0,26.443,22.669Zm9.741-1.28-.6-.964-.022-.031a16.88,16.88,0,0,1-1-1.49l1.579-1.67L37.807,18.9a16.863,16.863,0,0,1-1,1.5C36.784,20.422,36.815,20.377,36.184,21.389Zm2.071-3.3-1.5-1.5,1.892-2,.6,1.2A16.864,16.864,0,0,1,38.255,18.093Zm-2.129-2.129-.864-.864a4.441,4.441,0,0,0,1.647.037Zm-2.477-1.225,1.868,1.868-1.4,1.485a16.869,16.869,0,0,1-.991-2.3Zm11.816,7.045H36.981l.545-.874a17.748,17.748,0,0,0,1.22-1.865l.007-.012h0A17.735,17.735,0,0,0,40,16.32l1.864.621A5.6,5.6,0,0,1,45.464,21.784ZM30.87,9.874a.443.443,0,0,1-.443-.443V7.084h.9q0,.069,0,.139v0h0c.031.889.105,1.792.215,2.645H30.87Zm9.295-3.241s0,0,0,0l-.554-.079a7.115,7.115,0,0,1-4-2,.443.443,0,0,0-.313-.13,4.006,4.006,0,0,0-3.08,1.457,3.6,3.6,0,0,1,3.569-3.228h.793a3.6,3.6,0,0,1,3.589,3.6C40.168,6.4,40.167,6.522,40.165,6.632Zm1.775,2.8a.443.443,0,0,1-.443.443h-.676c.113-.872.188-1.8.218-2.713,0-.026,0-.051,0-.076h.9ZM36.184.886A5.764,5.764,0,0,1,41.923,6.2h-.869A4.484,4.484,0,0,0,36.58,1.771h-.793A4.484,4.484,0,0,0,31.314,6.2h-.869A5.753,5.753,0,0,1,36.184.886ZM31.313,11.2v-.443h.363l.094.565c.018.107.04.214.066.321h-.08A.443.443,0,0,1,31.313,11.2Zm2.733,1.328a1.33,1.33,0,0,0,1.252.886h.886a1.328,1.328,0,1,0,0-2.657H35.3a1.329,1.329,0,0,0-1.253.886H32.754a25.308,25.308,0,0,1-.531-4.3l.6-.795a3.117,3.117,0,0,1,2.3-1.235,8.009,8.009,0,0,0,4.363,2.116l.652.093c-.044.925-.133,1.853-.26,2.706h0c-.041.274-.073.451-.154.944A3.761,3.761,0,0,1,37.054,14.2a3.484,3.484,0,0,1-3.911-1.673Zm.809-.443a.443.443,0,0,1,.443-.443h.886a.443.443,0,1,1,0,.886H35.3A.443.443,0,0,1,34.855,12.087ZM30.5,16.942l1.864-.621a17.749,17.749,0,0,0,1.26,2.734l0,0h0a17.753,17.753,0,0,0,1.212,1.851l.545.874H26.9A5.6,5.6,0,0,1,30.5,16.942Z" transform="translate(-26)" fill="currentColor"/>
</svg>
